<?xml version="1.0" encoding="UTF-8"?>
<svg width="32px" height="32px" viewBox="0 0 32 32" version="1.1" xmlns="http://www.w3.org/2000/svg"
  xmlns:xlink="http://www.w3.org/1999/xlink">
  <title>fav-icon</title>
  <g id="Cover" stroke="none" stroke-width="1" fill="none" fill-rule="evenodd">
    <g id="fav-icon" fill-rule="nonzero">
      <g id="Frame" transform="translate(5.000000, 2.000000)">
        <path
          d="M17.44542,0 C15.40554,0 13.695,1.421496 13.2294,3.332268 C13.20012,3.452328 13.06854,3.519618 12.9555,3.469698 C11.82762,2.971602 10.57254,2.70705 9.2679,2.70705 C4.154568,2.70705 0,6.8616 0,11.97492 L0,24.40104 C0,26.82612 1.973892,28.8 4.398954,28.8 C6.82404,28.8 8.79792,26.82612 8.79792,24.40104 C8.79792,23.85588 9.23028,23.42352 9.77544,23.42352 C14.60676,23.42352 18.5358,19.49454 18.5358,14.66316 L18.5358,11.97492 C18.5358,11.43786 18.4908,10.90086 18.40092,10.39056 C18.38304,10.2891 18.44784,10.19112 18.54762,10.16538 C20.41146,9.6852 21.78798,7.98162 21.78798,5.97807 L21.78798,4.34256 C21.78798,1.93629 19.85172,0 17.44542,0 Z"
          id="Path" fill="#2D2C2C"></path>
        <path
          d="M9.2679,5.432868 C5.3577,5.432868 2.180676,8.60988 2.180676,12.52008 L2.180676,22.7655 C2.180676,23.98746 3.177018,24.98376 4.398954,24.98376 C5.620884,24.98376 6.61722,23.98746 6.61722,22.7655 L6.61722,21.33678 C6.61722,20.37804 7.38798,19.5885 8.36556,19.5885 L9.2679,19.5885 C13.17804,19.5885 16.3551828,16.41144 16.3551828,12.5013 C16.37388,8.60988 13.19688,5.432868 9.2679,5.432868 Z M11.95614,12.5577 C11.95614,14.04276 10.75302,15.24594 9.2679,15.24594 C7.78278,15.24594 6.57966,14.04276 6.57966,12.5577 C6.57966,11.07258 7.78278,9.8694 9.2679,9.8694 C10.75302,9.8694 11.95614,11.07258 11.95614,12.5577 Z"
          id="Shape" fill="#F8F6F0"></path>
        <path
          d="M17.44542,6.50448 C16.2423,6.50448 15.28356,5.54571 15.28356,4.342578 C15.28356,3.139446 16.2423,2.1807 17.44542,2.1807 C18.64854,2.1807 19.60734,3.139446 19.60734,4.342578 C19.60734,5.526912 18.64854,6.50448 17.44542,6.50448 Z"
          id="Path" fill="#F26A5D"></path>
      </g>
    </g>
  </g>
</svg>