<svg xmlns="http://www.w3.org/2000/svg" width="1.8rem" height="1.8rem" viewBox="0 0 141 66">
    <g id="protein-logo">
        <path d="M39.9791,0 C35.3043,0 31.3843,3.2576 30.3173,7.63645 C30.2503,7.91158 29.9488,8.06579 29.6897,7.9514 C27.1049,6.80993 24.2287,6.20366 21.2389,6.20366 C9.52089,6.20366 0,15.7245 0,27.4426 L0,55.9191 C0,61.4765 4.5235,66 10.0809,66 C15.6384,66 20.1619,61.4765 20.1619,55.9191 C20.1619,54.6697 21.1527,53.6789 22.4021,53.6789 C33.4739,53.6789 42.4778,44.6749 42.4778,33.6031 L42.4778,27.4426 C42.4778,26.2118 42.3748,24.9811 42.1688,23.8116 C42.1278,23.5791 42.2763,23.3546 42.5049,23.2957 C46.7763,22.1952 49.9308,18.2912 49.9308,13.6997 L49.9308,9.9517 C49.9308,4.43734 45.4935,0 39.9791,0 Z" fill="#2D2C2C"/>
    
        <path d="M21.2389,12.4502 C12.2781,12.4502 4.99738,19.7309 4.99738,28.6917 L4.99738,52.1708 C4.99738,54.9711 7.28067,57.2544 10.0809,57.2544 C12.8812,57.2544 15.1645,54.9711 15.1645,52.1708 L15.1645,48.8967 C15.1645,46.6995 16.9308,44.8901 19.171,44.8901 L21.2389,44.8901 C30.1997,44.8901 37.4805904,37.6095 37.4805904,28.6486 C37.5235,19.7309 30.2428,12.4502 21.2389,12.4502 Z M27.3995,28.7779 C27.3995,32.1813 24.6423,34.9384 21.2389,34.9384 C17.8355,34.9384 15.0783,32.1813 15.0783,28.7779 C15.0783,25.3745 17.8355,22.6173 21.2389,22.6173 C24.6423,22.6173 27.3995,25.3745 27.3995,28.7779 Z" fill="#F8F6F0"/>
    
        <path d="M39.9791,14.9062 C37.2219,14.9062 35.0248,12.709 35.0248,9.95187 C35.0248,7.19469 37.2219,4.99756 39.9791,4.99756 C42.7363,4.99756 44.9334,7.19469 44.9334,9.95187 C44.9334,12.666 42.7363,14.9062 39.9791,14.9062 Z" fill="#F26A5D"/>
    </g>
</svg>